<?xml version="1.0" encoding="utf-8"?>
<!-- Generator: Adobe Illustrator 19.2.1, SVG Export Plug-In . SVG Version: 6.00 Build 0)  -->
<svg version="1.1" id="Layer_1" xmlns="http://www.w3.org/2000/svg" xmlns:xlink="http://www.w3.org/1999/xlink" x="0px" y="0px"
	 viewBox="0 0 125 125" style="enable-background:new 0 0 125 125;" xml:space="preserve">
<style type="text/css">
	.st0{fill:#FFFFFF;}
</style>
<g>
	<path class="st0" d="M98.5,23.6c0,0-1.1-1-1.1-1c0,0-1.7-1.5-1.7-1.5c-1.1-0.7-4.7-2.7-8.2-0.1l-2.8,3l6.3,5.8l0,0
		c9.3,8.2,14.7,20.1,14.7,32.5c0,23.9-19.4,43.3-43.3,43.3c-23.9,0-43.3-19.4-43.3-43.3c0-23.1,18.1-42,40.9-43.2v74.5l3.9,0
		c4.1-0.8,5.1-4.6,5.3-5.9V12c0,0,0,0,0,0l0-2.1c-2.3-0.3-4.6-0.4-6.9-0.4C33.4,9.4,9.7,33.1,9.7,62.2c0,29.1,23.7,52.8,52.8,52.8
		c29.1,0,52.8-23.7,52.8-52.8C115.2,47.5,109.1,33.6,98.5,23.6z"/>
	<g>
		<g>
			<path class="st0" d="M43.2,77.5l5.6-6.6c5,4.4,10.2,6.9,16.7,6.9c5.7,0,9.3-2.7,9.3-6.6V71c0-3.8-2.1-5.8-11.9-8.1
				c-11.2-2.7-17.6-6-17.6-15.8V47c0-9,7.5-15.3,18-15.3c7.7,0,13.8,2.3,19.1,6.6l-5,7c-4.7-3.5-9.5-5.4-14.3-5.4
				c-5.4,0-8.6,2.8-8.6,6.3v0.2c0,4.1,2.4,5.9,12.6,8.3C78.3,57.3,84,61.3,84,70.1v0.2C84,80.1,76.3,86,65.2,86
				C57.1,86,49.5,83.2,43.2,77.5z"/>
		</g>
	</g>
</g>
</svg>
