<?xml version="1.0" encoding="utf-8"?>
<!-- Generator: Adobe Illustrator 19.2.1, SVG Export Plug-In . SVG Version: 6.00 Build 0)  -->
<svg version="1.1" id="Layer_1" xmlns="http://www.w3.org/2000/svg" xmlns:xlink="http://www.w3.org/1999/xlink" x="0px" y="0px"
	 viewBox="0 0 50 50" style="enable-background:new 0 0 50 50;" xml:space="preserve">
<style type="text/css">
	.st0{fill:#FFFFFF;}
</style>
<path class="st0" d="M25.3,30.4V35c0.7-0.1,1.2-0.4,1.6-0.8c0.4-0.4,0.6-0.9,0.6-1.5c0-0.6-0.2-1.1-0.6-1.4
	C26.6,30.9,26,30.7,25.3,30.4z M24.4,12.6h0.4h2l4.8-5.9V4.4h-3.3V3.1h-3.5h-0.4H21v1.3h-3.3v2.3l4.8,5.9H24.4z M22.2,25.4
	c0,0.5,0.2,1,0.5,1.2c0.3,0.3,0.8,0.5,1.4,0.8v-4c-0.6,0.2-1,0.4-1.4,0.7C22.3,24.4,22.2,24.8,22.2,25.4z M39.2,38.4
	c1.7-1.2,5.7-15-11-24.2h-3.4h-0.3h-3.4c-16.7,9.2-12.7,23-11,24.2c3.6,3-1.1,5.9-1.1,5.9L9,45.6c0,0,0,0,2.2,0
	c5.4-1,8.7,0.3,8.7,0.3h4.6h0.3h4.6c0,0,3.3-1.3,8.7-0.3c2.2,0,2.2,0,2.2,0l-0.1-1.3C40.3,44.3,35.6,41.4,39.2,38.4z M29.5,34.5
	c-0.4,0.7-0.9,1.2-1.6,1.7c-0.7,0.4-1.6,0.7-2.5,0.8v2.6c0,0.4,0,0.7-0.1,0.9c-0.1,0.2-0.3,0.3-0.5,0.3c-0.2,0-0.4-0.1-0.5-0.2
	c-0.1-0.2-0.1-0.4-0.1-0.7V37c-0.8-0.1-1.5-0.3-2.1-0.6c-0.6-0.3-1.1-0.6-1.5-1.1c-0.4-0.4-0.7-0.9-0.9-1.3
	c-0.2-0.5-0.3-0.9-0.3-1.4c0-0.3,0.1-0.6,0.4-0.9c0.3-0.3,0.6-0.4,1-0.4c0.3,0,0.6,0.1,0.8,0.2c0.2,0.1,0.4,0.3,0.4,0.6
	c0.2,0.6,0.3,1,0.5,1.3c0.1,0.3,0.3,0.6,0.6,0.8c0.3,0.2,0.6,0.4,1.1,0.6v-4.8c-0.9-0.3-1.7-0.5-2.3-0.9c-0.6-0.3-1.1-0.8-1.5-1.3
	c-0.4-0.6-0.6-1.3-0.6-2.2c0-1.2,0.4-2.2,1.1-2.9c0.8-0.8,1.8-1.2,3.3-1.3v-1.1c0-0.6,0.2-0.9,0.7-0.9c0.4,0,0.7,0.3,0.7,0.8v1.1
	c0.7,0.1,1.4,0.2,1.9,0.5c0.5,0.2,1,0.6,1.4,1c0.3,0.3,0.5,0.7,0.7,1.1c0.2,0.4,0.3,0.7,0.3,1c0,0.3-0.1,0.6-0.4,0.9
	c-0.3,0.3-0.6,0.4-0.9,0.4c-0.7,0-1.1-0.4-1.3-1.1c-0.2-0.9-0.8-1.4-1.6-1.7v4.3c0.9,0.2,1.5,0.4,2,0.6c0.5,0.2,1,0.5,1.4,0.8
	c0.4,0.4,0.8,0.8,1,1.4c0.2,0.5,0.3,1.1,0.3,1.7C30.1,33.1,29.9,33.8,29.5,34.5z"/>
</svg>
