<?xml version="1.0" encoding="utf-8"?>
<!-- Generator: Adobe Illustrator 19.2.1, SVG Export Plug-In . SVG Version: 6.00 Build 0)  -->
<svg version="1.1" id="Layer_1" xmlns="http://www.w3.org/2000/svg" xmlns:xlink="http://www.w3.org/1999/xlink" x="0px" y="0px"
	 viewBox="0 0 101.3 142.4" style="enable-background:new 0 0 101.3 142.4;" xml:space="preserve">
<style type="text/css">
	.st0{fill:#FFFFFF;}
</style>
<g>
	<path class="st0" d="M94.6,40.2c0-1.6-0.6-3.2-1.6-4.5L80.6,11.4l-0.1-0.1c-1.3-2.2-3.7-3.6-6.3-3.6c-1.3,0-2.6,0.4-3.7,1
		c-2.7,1.6-4.1,4.8-3.3,8l0.2,0.5l-4.8,2.1c0-0.3-0.1-0.6-0.1-0.8c-0.2-0.9-0.5-1.7-0.9-2.5c-0.6-1.2-1.3-2.3-2.2-3.2
		c-2.2-2.3-5.2-3.5-8.4-3.5c-0.8,0-1.7,0.1-2.5,0.3c-3.1,0.7-5.7,2.5-7.4,5.1s-2.3,5.8-1.6,8.8l0.1,0.2h0.2c0,0,3.8-0.4,4-3.9
		c0.5-2.9,2.7-5.2,5.6-5.9c0.5-0.1,1-0.2,1.5-0.2c2,0,3.8,0.8,5.2,2.2c0.6,0.6,1,1.2,1.4,2c0.2,0.5,0.4,1,0.5,1.6
		c0.4,1.9,0.1,3.8-1,5.4c-2,2.9-4.5,3.2-4.5,3.2c-2.7,0.4-4.9,1.9-6.2,4.3c-1.8,3.1-1.9,7.4-0.3,10.4l0.1,0.1
		c2.9,4.9,17.1,29.4,18,30.7c0,0,0.1,0.1,0.1,0.2c0.2,0.6,0.1,1.3,0.1,1.5l-4.7,24.6L44,125.7c-2.5,4.2-1.2,9.6,3,12.1
		c2,1.2,4.4,1.6,6.7,1s4.2-2,5.4-4l11.1-18.4L65,130.6c-0.8,2.2-0.7,4.6,0.3,6.7c1,2.1,2.7,3.8,5,4.6c1,0.4,2,0.5,3,0.5
		c3.7,0,7-2.3,8.3-5.8l10.5-28.4c0.2-0.5,0.3-1,0.4-1.6c0.4-1,0.6-2.1,0.6-3.2V73.2c0-1.4-0.3-2.8-1-4.1L80.6,47.5h6.7
		C91.3,47.5,94.6,44.2,94.6,40.2z M73.3,138.1c-0.5,0-1-0.1-1.5-0.3c-1.1-0.4-2-1.2-2.4-2.3c-0.5-1.1-0.5-2.2-0.1-3.3L79.7,104
		c0-0.1,0.1-0.2,0.1-0.2l0.1-0.4V87.3l-4.4-0.4l-3.2,16.5c-0.1,0.6-0.4,1.2-0.7,1.8l-0.2,0.2l-0.1,0.4c-0.1,0.4-0.3,0.8-0.4,1
		l-15.7,26c-0.6,1-1.5,1.7-2.7,2c-1.1,0.3-2.3,0.1-3.3-0.5c-2-1.2-2.7-3.9-1.5-6l15.6-25.8c0.1-0.1,0.1-0.2,0.2-0.3l0.2-0.3
		l4.9-25.4c0-0.2,0.4-2.1-0.3-3.9c-0.1-0.4-0.3-0.7-0.5-1c-0.7-1.1-12-20.5-17.9-30.6c-0.7-1.4-0.8-4,0.3-6c0.9-1.7,3.6-2.3,3.6-2.3
		c2.9-0.7,5.4-2.5,7-5c0.6-0.9,1-1.9,1.4-2.9l7.1-3.2l5.8,11.6h-6.5c-3.5,0-4.2,4.1-4.2,4.2l-0.1,0.3h18.1l-10.8-22l0,0
		c-0.3-1.2,0.2-2.5,1.2-3.1c0.4-0.3,0.9-0.4,1.4-0.4c1,0,1.9,0.5,2.4,1.3l12.6,24.7l0.2,0.2c0.3,0.4,0.7,1,0.7,1.8
		c0,1.5-1.3,2.8-2.8,2.8H73.1l15,28.2c0.3,0.7,0.5,1.3,0.5,2v30.3c0,0.6-0.1,1.2-0.4,1.7l-0.1,0.2l-0.1,0.3c-0.1,0.4-0.1,0.7-0.2,1
		l-10.5,28.4C76.8,136.9,75.1,138.1,73.3,138.1z"/>
	<path class="st0" d="M18.9,53l-5-6.3l3.9-1.8l0.2-0.1l0,0l26.4-12.2l-1.9-4.1L13.3,42.1l-7.2,3.2c-1.9,0.8-2.7,3.1-1.9,5l3.6,8
		c0.6,1.3,2,2.2,3.4,2.2c0.5,0,1-0.1,1.5-0.3l4.4-2c1.9-0.8,2.7-3.1,1.9-4.9L18.9,53z M14.4,54.5l-2.9,1.3l-3-6.7l1.2-0.5L14.4,54.5
		z"/>
</g>
</svg>
