<?xml version="1.0" encoding="utf-8"?>
<!-- Generator: Adobe Illustrator 19.2.1, SVG Export Plug-In . SVG Version: 6.00 Build 0)  -->
<svg version="1.1" id="Layer_1" xmlns="http://www.w3.org/2000/svg" xmlns:xlink="http://www.w3.org/1999/xlink" x="0px" y="0px"
	 viewBox="0 0 132.3 140.3" style="enable-background:new 0 0 132.3 140.3;" xml:space="preserve">
<style type="text/css">
	.st0{fill:#FFFFFF;}
</style>
<g>
	<path class="st0" d="M67.1,102c-0.1-0.9-0.4-3.6-2.7-6.7L54.1,82c0.1-0.3,0.3-0.6,0.4-1c1.2-2.9,3.3-8.1,5-12.2
		c0.2,0.2,0.4,0.5,0.6,0.7C61,70.4,62,71,63,71.4l8.4,3.1l0.1-0.3c0,0,1.1-4-1.8-5.1c-1-0.4-5.2-1.9-5.2-1.9
		c-0.4-0.2-0.8-0.4-1.2-0.8l-0.1-0.1c-0.3-0.3-0.6-0.7-0.8-1.1l-3.2-7.8l-2.1,5.1c0,0.1-4.8,11.9-6.9,16.8c-0.6,1.5-0.8,1.9-0.8,2
		l-0.8,1.3l12,15.6c1.6,2.1,1.8,3.8,1.9,4.5l3.4,28.4c0.1,1.2-0.2,2.3-0.9,3.2c-0.7,0.9-1.8,1.5-3,1.6c-2.5,0.3-4.6-1.5-4.9-3.8
		l-3.4-28.5L42,88.3l-20.4,44.8c-0.7,1.6-2.3,2.6-4.1,2.6c-0.6,0-1.2-0.1-1.8-0.4c-1.1-0.5-1.9-1.4-2.3-2.5
		c-0.4-1.1-0.4-2.3,0.1-3.3l21.7-47.9l5.3-35.3l-12.4,4l-2.9,20.5c-0.2,1.7-1.8,2.9-3.5,2.6c-0.8-0.1-1.6-0.6-2.1-1.2
		c-0.5-0.7-0.7-1.5-0.6-2.3l3.2-22c0.1-0.6,0.4-1.2,0.9-1.7l0.2-0.2c0.4-0.5,0.9-0.8,1.5-1l37.7-9.9l0.2-0.1
		c2.9-0.8,5.4-2.6,7.1-5.1c1.8-2.7,2.4-5.9,1.7-9.1c-1.2-5.5-6.2-9.5-11.8-9.5c-0.8,0-1.7,0.1-2.5,0.3c-3.2,0.7-5.9,2.5-7.7,5.2
		s-2.4,5.9-1.7,9.1c0.3,1.3,0.8,2.6,1.5,3.8l0.1,0.2l0.2-0.1c0.1-0.1,3.5-1.8,2.6-4.3c0-0.2-0.1-0.3-0.1-0.5c-0.4-2,0-4,1.1-5.7
		S56,16.4,58,16c0.5-0.1,1.1-0.2,1.6-0.2c3.6,0,6.7,2.5,7.5,6c0.4,2,0,4-1.1,5.7s-2.8,2.9-4.8,3.3l-0.3,0.1l0,0l-37.4,9.8h-0.1
		c-1.4,0.5-2.7,1.3-3.6,2.5c-1.1,1.2-1.8,2.6-2,4.1l-3.2,22c-0.3,2,0.2,4,1.4,5.6s3,2.7,5,3c0.4,0.1,0.7,0.1,1.1,0.1
		c3.8,0,7-2.8,7.5-6.5l2.5-17.7l2.8-0.9l-4.1,27.5L9.4,127.7c-1,2.2-1.1,4.6-0.2,6.8c0.8,2.2,2.5,4,4.7,5c1.2,0.5,2.4,0.8,3.6,0.8
		c3.5,0,6.7-2,8.1-5.2L43,96.8l6.6,8.4l3.2,27.2c0.5,4.5,4.3,7.8,8.8,7.8l0,0c0.3,0,0.7,0,1.1-0.1c2.4-0.3,4.5-1.5,6-3.3
		c1.5-1.9,2.1-4.2,1.9-6.5L67.1,102z"/>
	<path class="st0" d="M110.7,72c-0.8-2-2.7-3.2-4.8-3.2c-0.7,0-1.4,0.1-2,0.4l-9,3.8c-0.6-1.5-1.5-3.2-2.1-4.4
		c-0.9-1.6-2.3-2.9-4-3.5l-17.2-6.3c-1.3-3-5.5-12.6-7.4-18.5c-0.4-1-1.5-1.5-3.3-1.5c-0.8,0-1.4,0.1-1.5,0.1l-0.4,0l0.1,0.3
		c1.6,6.5,8.4,21.6,8.7,22.2l0.4,0.9l19,7c0.7,0.3,1.3,0.8,1.6,1.4c0.8,1.6,3.5,7.9,3.5,8l0.1,0.3l13.2-5.6c0.4-0.2,0.8,0,1,0.4
		l7.6,18.3c0.1,0.2,0.1,0.4,0,0.6s-0.2,0.3-0.4,0.4l-30.5,12.7c-0.4,0.2-0.8,0-1-0.4L74.6,87c-0.1-0.2-0.1-0.4,0-0.6
		s0.2-0.3,0.4-0.4l10.6-4.4l-0.2-0.3c-0.1-0.1-1.6-2.2-4.3-2.2c-0.7,0-1.4,0.1-2.1,0.4c-0.9,0.4-5.8,2.4-5.8,2.4
		c-1.3,0.5-2.3,1.6-2.8,2.8c-0.5,1.3-0.5,2.7,0,4L78,107c0.8,2,2.7,3.2,4.8,3.2c0.7,0,1.4-0.1,2-0.4l30.5-12.7
		c1.3-0.5,2.3-1.6,2.8-2.8c0.5-1.3,0.5-2.7,0-4L110.7,72z"/>
</g>
</svg>
