<?xml version="1.0" encoding="utf-8"?>
<!-- Generator: Adobe Illustrator 19.2.1, SVG Export Plug-In . SVG Version: 6.00 Build 0)  -->
<svg version="1.1" id="Layer_1" xmlns="http://www.w3.org/2000/svg" xmlns:xlink="http://www.w3.org/1999/xlink" x="0px" y="0px"
	 viewBox="0 0 828.2 115.1" style="enable-background:new 0 0 828.2 115.1;" xml:space="preserve">
<style type="text/css">
	.st0{fill-rule:evenodd;clip-rule:evenodd;fill:#FFFFFF;}
</style>
<path class="st0" d="M41.4,53.1c12.6,0,23.7,6.8,30.1,17c3-1.2,6.3-1.8,9.7-1.8c15.2,0,27.4,12.9,27.4,28.8c0,1.8-0.2,3.6-0.5,5.3H0
	V78c0.9-0.1,1.9-0.2,2.9-0.2c1.6,0,3.1,0.2,4.6,0.5C12.4,63.6,25.7,53.1,41.4,53.1L41.4,53.1z"/>
<path class="st0" d="M758,12.3c-11.2,0-21,6-26.7,15.1c-2.7-1.1-5.6-1.6-8.6-1.6c-13.4,0-24.3,11.4-24.3,25.5c0,1.6,0.1,3.1,0.4,4.7
	H813c-0.1-12-9.4-21.7-20.8-21.7c-1.4,0-2.7,0.1-4,0.4C783.8,21.7,771.9,12.3,758,12.3L758,12.3z"/>
</svg>
