<?xml version="1.0" encoding="utf-8"?>
<!-- Generator: Adobe Illustrator 19.2.1, SVG Export Plug-In . SVG Version: 6.00 Build 0)  -->
<svg version="1.1" id="Layer_1" xmlns="http://www.w3.org/2000/svg" xmlns:xlink="http://www.w3.org/1999/xlink" x="0px" y="0px"
	 viewBox="0 0 430.1 230.5" style="enable-background:new 0 0 430.1 230.5;" xml:space="preserve">
<style type="text/css">
	.st0{fill:#8BC53F;}
	.st1{fill:#5F8C2B;}
	.st2{fill:#77A935;}
	.st3{fill:#FFFFFF;}
	.st4{fill:#515254;}
	.st5{fill:none;stroke:#FFFFFF;stroke-width:5;stroke-miterlimit:10;}
	.st6{fill:#EF8322;}
</style>
<path class="st0" d="M221.9,229.8c0-61.3-49.7-111-111-111s-111,49.7-111,111c0,0.2,0,0.5,0,0.7h221.9
	C221.9,230.3,221.9,230,221.9,229.8z"/>
<path class="st1" d="M221.9,229.8c0-38.5-19.6-72.4-49.4-92.3c-33.6,28.6-68,93-68,93h117.4C221.9,230.3,221.9,230,221.9,229.8z"/>
<path class="st2" d="M430.1,229.6c0-76.8-62.3-139.1-139.1-139.1s-139.1,62.3-139.1,139.1c0,0.3,0,0.6,0,0.9h278.3
	C430.1,230.2,430.1,229.9,430.1,229.6z"/>
<ellipse class="st3" cx="323.1" cy="128.9" rx="13.5" ry="5.5"/>
<ellipse class="st4" cx="323.1" cy="130.2" rx="12.8" ry="4.2"/>
<line class="st5" x1="309.7" y1="121.5" x2="309.7" y2="4.5"/>
<polygon class="st6" points="309.7,39.5 309.7,4.5 344.7,4.5 "/>
</svg>
