<?xml version="1.0" encoding="utf-8"?>
<!-- Generator: Adobe Illustrator 19.2.1, SVG Export Plug-In . SVG Version: 6.00 Build 0)  -->
<svg version="1.1" id="Layer_1" xmlns="http://www.w3.org/2000/svg" xmlns:xlink="http://www.w3.org/1999/xlink" x="0px" y="0px"
	 viewBox="0 0 103.5 138.9" style="enable-background:new 0 0 103.5 138.9;" xml:space="preserve">
<style type="text/css">
	.st0{fill:#FFFFFF;}
</style>
<g>
	<path class="st0" d="M64.6,71.8c-2.4-0.9-10.4-3.5-10.4-3.6c-0.4-0.1-0.8-0.4-1.1-0.7L53,67.4c-0.3-0.3-0.6-0.6-0.7-1l-3.4-7.7
		l-2,5.3c-0.7,2-4.4,11.9-6.1,16.3c-0.5,1.4-0.7,1.8-0.7,1.9l-0.7,1.3l11.9,14.7c1.5,1.9,1.8,3.6,1.9,4.2l4,27.3
		c0.3,2.3-1.2,4.4-3.5,4.7c-1.1,0.2-2.2-0.1-3.1-0.8c-0.9-0.7-1.5-1.6-1.6-2.7l-4-27.3v-0.1L33.1,89l-17.8,42.4
		c-0.4,1-1.2,1.8-2.3,2.2c-1,0.4-2.2,0.4-3.2,0c-2.1-0.9-3.1-3.3-2.2-5.4L23.7,90l3.3-8l-1-1.1c-2.2-2.4-2.8-5.9-1.8-9.6L30,52.7
		c0.3-0.7,2.7-7.1,5.8-11.7c1.3-2,5.4-4.5,17-5.4l0,0h0.3h0.1h0.7l0.3-0.1l0,0c2.8-0.5,5.3-2,7.1-4.1c2.1-2.5,3.1-5.6,2.8-8.8
		c-0.3-3.2-1.8-6.1-4.3-8.2c-2.2-1.8-4.9-2.8-7.7-2.8c-0.4,0-0.8,0-1.1,0.1c-3.2,0.3-6.1,1.8-8.2,4.3c-2.1,2.5-3.1,5.6-2.8,8.8
		c0.1,1.4,0.5,2.7,1.1,3.9L41,29l0.2-0.1c0,0,3.8-1,3.1-4.5v-0.1c-0.2-2,0.5-3.9,1.7-5.4c1.3-1.6,3.2-2.5,5.2-2.7
		c2-0.2,4,0.4,5.6,1.7c1.6,1.3,2.5,3.1,2.7,5.1s-0.4,4-1.7,5.5s-3.1,2.5-5.1,2.7C41.6,32,34.8,34.4,32,38.6
		c-3.4,5.2-6,12.4-6.1,12.7L20,70.1c-1.4,4.7-0.7,9.3,1.8,12.7l-2.2,5.4L3.4,126.5c-1.8,4.4,0.3,9.5,4.7,11.3c2.1,0.9,4.5,0.9,6.6,0
		s3.8-2.5,4.7-4.7l14.9-35.5l6.4,7.8l3.9,26.2c0.3,2.3,1.5,4.3,3.4,5.7c1.5,1.1,3.3,1.7,5.1,1.7l0,0c0.4,0,0.9,0,1.3-0.1
		c4.7-0.7,8-5.1,7.3-9.8l-4.1-27.3c-0.1-0.9-0.5-3.5-2.8-6.4L44.6,82.8c0.1-0.3,0.2-0.6,0.4-0.9c0.9-2.2,2.3-6.2,4.4-11.7
		c0.2,0.2,0.3,0.4,0.5,0.5c0.8,0.8,1.8,1.4,2.8,1.8l7.8,2.6l6.6,2.3V77C67.2,76.9,67.2,72.8,64.6,71.8z M53.1,138.6L53.1,138.6
		L53.1,138.6L53.1,138.6z"/>
	<path class="st0" d="M88.3,75.3L88.3,75.3V75v-0.1l-0.1-0.5l0,0c-0.4-1.6-1.1-3-2.1-4.2c-0.7-1-2.4-2.6-8.8-4.8l-16.7-5.6
		c-0.6-1.3-6.3-13.9-7.2-15.6c-0.8-1.6-2.6-2-3.9-2c-0.8,0-1.5,0.1-1.5,0.1l-0.3,0.1l9.6,20.9l0.1,0.1l17,5.8
		c-2.6,2.2-3.9,6-3.3,9.6c0,0.1,0,0.1,0.4,1.7l0.3,1.4h0.3c0,0,3.9-0.5,3.5-3.8c-0.3-3.1,1.1-5.8,3.4-6.4c0.3-0.1,0.6-0.1,0.8-0.1
		c0.8,0,1.5,0.3,2,0.6c1.1,0.7,1.9,1.9,2.2,3.4c0.1,0.6,10.3,56.8,10.9,59.5c0.5,2.5,3.6,2.7,4.5,2.7c0.1,0,0.2,0,0.2,0h0.3
		L88.3,75.3z"/>
</g>
</svg>
