<?xml version="1.0" encoding="utf-8"?>
<!-- Generator: Adobe Illustrator 19.2.1, SVG Export Plug-In . SVG Version: 6.00 Build 0)  -->
<svg version="1.1" id="Layer_1" xmlns="http://www.w3.org/2000/svg" xmlns:xlink="http://www.w3.org/1999/xlink" x="0px" y="0px"
	 viewBox="0 0 306.5 189" style="enable-background:new 0 0 306.5 189;" xml:space="preserve">
<style type="text/css">
	.st0{fill:#1EA7A7;}
	.st1{fill:#FFFFFF;}
</style>
<g>
	<path class="st0" d="M207.4,51.4c21.5,0,38.9,17.4,38.9,38.9s-17.4,38.9-38.9,38.9s-38.9-17.4-38.9-38.9
		C168.5,68.9,185.9,51.4,207.4,51.4L207.4,51.4z"/>
	<polygon class="st0" points="203.3,108.8 211.5,108.8 211.5,189 203.3,189 	"/>
</g>
<polygon class="st0" points="271,2.2 306.5,31.3 306.5,189 235.5,189 235.5,31.3 "/>
<path class="st1" d="M277.2,46.1h8.3v10.1h-8.3V46.1L277.2,46.1z M286.9,46.1h8.3v10.1h-8.3V46.1L286.9,46.1z M295.2,57.6v10.1h-8.3
	V57.6H295.2L295.2,57.6z M285.5,67.7h-8.3V57.6h8.3V67.7L285.5,67.7z"/>
<path class="st1" d="M251.6,91.1h8.3v10.1h-8.3V91.1L251.6,91.1z M261.3,91.1h8.3v10.1h-8.3V91.1L261.3,91.1z M269.6,102.7v10.1
	h-8.3v-10.1H269.6L269.6,102.7z M259.9,112.8h-8.3v-10.1h8.3V112.8L259.9,112.8z"/>
<path class="st1" d="M263.9,119.3h8.3v10.1h-8.3V119.3L263.9,119.3z M273.6,119.3h8.3v10.1h-8.3V119.3L273.6,119.3z M281.9,130.8
	v10.1h-8.3v-10.1H281.9L281.9,130.8z M272.2,140.9h-8.3v-10.1h8.3V140.9L272.2,140.9z"/>
<polygon class="st0" points="92.7,112.9 55.1,82.1 17.6,112.9 17.6,189 92.7,189 "/>
<polygon class="st0" points="41.3,133.5 0,133.5 0,189 41.3,189 "/>
<path class="st1" d="M78,148.1v10.4h-8.6v-10.4H78L78,148.1z M68,148.1v10.4h-8.5v-10.4H68L68,148.1z M59.4,160h8.5v10.4h-8.5V160
	L59.4,160z M69.4,170.5V160H78v10.4h-8.6V170.5z"/>
<path class="st1" d="M50.3,148.4v10.4h-8.6v-10.4H50.3L50.3,148.4z M40.3,148.4v10.4h-8.6v-10.4H40.3L40.3,148.4z M31.7,160.3h8.6
	v10.4h-8.6V160.3L31.7,160.3z M41.7,170.7v-10.4h8.6v10.4H41.7L41.7,170.7z"/>
</svg>
