<?xml version="1.0" encoding="utf-8"?>
<!-- Generator: Adobe Illustrator 19.2.1, SVG Export Plug-In . SVG Version: 6.00 Build 0)  -->
<svg version="1.1" id="Layer_1" xmlns="http://www.w3.org/2000/svg" xmlns:xlink="http://www.w3.org/1999/xlink" x="0px" y="0px"
	 viewBox="0 0 298.5 228" style="enable-background:new 0 0 298.5 228;" xml:space="preserve">
<style type="text/css">
	.st0{fill-rule:evenodd;clip-rule:evenodd;fill:#1EA7A7;}
</style>
<polygon class="st0" points="242.3,58.7 258,58.7 258,151.6 242.3,151.6 242.3,58.7 "/>
<g>
	<path class="st0" d="M251.2,41.7c2.5,0,4.5,1.9,4.5,4.1c0,2.3-2,4.1-4.5,4.1c-2.5,0-4.5-1.9-4.5-4.1
		C246.8,43.5,248.8,41.7,251.2,41.7L251.2,41.7z"/>
	<path class="st0" d="M262.8,28.8c4.1,0,7.5,3.1,7.5,6.9c0,3.8-3.3,6.9-7.5,6.9c-4.1,0-7.5-3.1-7.5-6.9
		C255.4,31.9,258.7,28.8,262.8,28.8L262.8,28.8z"/>
	<path class="st0" d="M264.9,2.7c6.8,0,12.3,5.1,12.3,11.4c0,6.3-5.5,11.4-12.3,11.4c-6.8,0-12.3-5.1-12.3-11.4
		C252.6,7.8,258.1,2.7,264.9,2.7L264.9,2.7z"/>
</g>
<path class="st0" d="M24.7,149.9c12.2,0,22.1,9.9,22.1,22.1c0,12.2-9.9,22.1-22.1,22.1c-12.2,0-22.1-9.9-22.1-22.1
	C2.6,159.8,12.5,149.9,24.7,149.9L24.7,149.9z"/>
<line class="st0" x1="22.4" y1="228" x2="22.4" y2="182.5"/>
<g>
	<path class="st0" d="M61.2,90.4c21.5,0,38.9,17.4,38.9,38.9c0,21.5-17.4,38.9-38.9,38.9s-38.9-17.4-38.9-38.9
		C22.3,107.9,39.7,90.4,61.2,90.4L61.2,90.4z"/>
	<polygon class="st0" points="57.1,147.8 65.3,147.8 65.3,228 57.1,228 57.1,147.8 	"/>
</g>
<g>
	<polygon class="st0" points="140.9,166 156,166 156,228 140.9,228 140.9,166 	"/>
	<polygon class="st0" points="160,166 175.1,166 175.1,228 160,228 160,166 	"/>
	<polygon class="st0" points="178.6,166 193.8,166 193.8,228 178.6,228 178.6,166 	"/>
	<polygon class="st0" points="197.5,166 212.7,166 212.7,228 197.5,228 197.5,166 	"/>
	<polygon class="st0" points="143.9,175.2 222,175.2 222,184.3 143.9,184.3 143.9,175.2 	"/>
</g>
<polygon class="st0" points="298.5,75.6 278.9,59.7 219.5,108.2 219.5,228.5 298.5,228.5 "/>
</svg>
