<?xml version="1.0" encoding="utf-8"?>
<!-- Generator: Adobe Illustrator 19.2.1, SVG Export Plug-In . SVG Version: 6.00 Build 0)  -->
<svg version="1.1" id="pointer" xmlns="http://www.w3.org/2000/svg" xmlns:xlink="http://www.w3.org/1999/xlink" x="0px" y="0px"
	 viewBox="0 0 125 125" style="enable-background:new 0 0 125 125;" xml:space="preserve">
<style type="text/css">
	.st0{fill:#FFFFFF;}
</style>
<g>
	<rect x="88" y="84" class="st0" width="4" height="12"/>
	<rect x="92" y="60" class="st0" width="4" height="24"/>
	<rect x="88" y="56" class="st0" width="4" height="4"/>
	<polygon class="st0" points="80,68 84,68 84,56 88,56 88,52 80,52 80,56 	"/>
	<polygon class="st0" points="68,64 72,64 72,52 80,52 80,48 68,48 68,52 	"/>
	<polygon class="st0" points="60,64 60,48 68,48 68,44 60,44 60,32 56,32 56,64 	"/>
	<rect x="48" y="28" class="st0" width="8" height="4"/>
	<polygon class="st0" points="44,68 44,80 48,80 48,32 44,32 44,64 40,64 40,68 	"/>
	<polygon class="st0" points="84,104 52,104 52,100 48,100 48,92 44,92 44,84 40,84 40,76 36,76 36,72 32,72 32,64 40,64 40,60 
		28,60 28,64 28,72 32,72 32,76 36,76 36,84 40,84 40,92 44,92 44,100 48,100 48,108 52,108 84,108 84,108 88,108 88,96 84,96 	"/>
</g>
</svg>
