<?xml version="1.0" encoding="utf-8"?>
<!-- Generator: Adobe Illustrator 19.2.1, SVG Export Plug-In . SVG Version: 6.00 Build 0)  -->
<svg version="1.1" id="Layer_1" xmlns="http://www.w3.org/2000/svg" xmlns:xlink="http://www.w3.org/1999/xlink" x="0px" y="0px"
	 viewBox="0 0 60 60" style="enable-background:new 0 0 60 60;" xml:space="preserve">
<style type="text/css">
	.st0{fill:#FFFFFF;}
</style>
<g>
	<path class="st0" d="M33.6,40.3c0-0.3-0.2-1.4-1-2.5l-3.9-5.1c0-0.1,0.1-0.2,0.2-0.4c0.5-1.1,1.3-3.1,1.9-4.6
		c0.1,0.1,0.2,0.2,0.2,0.3c0.3,0.3,0.7,0.6,1.1,0.7l3.2,1.2l0-0.1c0,0,0.4-1.5-0.7-1.9c-0.4-0.1-2-0.7-2-0.7
		c-0.2-0.1-0.3-0.2-0.4-0.3l0,0c-0.1-0.1-0.2-0.3-0.3-0.4l-1.2-3l-0.8,1.9c0,0-1.8,4.5-2.6,6.4c-0.2,0.6-0.3,0.7-0.3,0.7l-0.3,0.5
		l4.6,5.9c0.6,0.8,0.7,1.4,0.7,1.7l1.3,10.8c0.1,0.4-0.1,0.9-0.3,1.2c-0.3,0.4-0.7,0.6-1.1,0.6c-0.9,0.1-1.8-0.6-1.9-1.5l-1.3-10.8
		L24,35.1l-7.7,17c-0.3,0.6-0.9,1-1.5,1c-0.2,0-0.5-0.1-0.7-0.1c-0.4-0.2-0.7-0.5-0.9-0.9c-0.2-0.4-0.1-0.9,0-1.3l8.3-18.2l2-13.4
		l-4.7,1.5l-1.1,7.8c-0.1,0.6-0.7,1.1-1.3,1c-0.3,0-0.6-0.2-0.8-0.5c-0.2-0.3-0.3-0.6-0.2-0.9l1.2-8.4c0-0.2,0.1-0.5,0.3-0.7
		l0.1-0.1c0.1-0.2,0.3-0.3,0.6-0.4l14.3-3.8l0.1,0c1.1-0.3,2.1-1,2.7-1.9c0.7-1,0.9-2.3,0.7-3.5c-0.4-2.1-2.3-3.6-4.5-3.6
		c-0.3,0-0.6,0-1,0.1c-1.2,0.3-2.2,1-2.9,2c-0.7,1-0.9,2.3-0.6,3.5c0.1,0.5,0.3,1,0.6,1.4l0.1,0.1l0.1,0c0.1,0,1.3-0.7,1-1.6
		c0-0.1,0-0.1,0-0.2c-0.2-0.8,0-1.5,0.4-2.2c0.4-0.6,1.1-1.1,1.8-1.3c0.2,0,0.4-0.1,0.6-0.1c1.4,0,2.6,1,2.8,2.3
		c0.2,0.8,0,1.5-0.4,2.2c-0.4,0.6-1.1,1.1-1.8,1.3l-0.1,0l0,0L17,17l0,0c-0.5,0.2-1,0.5-1.4,0.9c-0.4,0.4-0.7,1-0.8,1.6l-1.2,8.4
		c-0.1,0.8,0.1,1.5,0.5,2.1c0.5,0.6,1.1,1,1.9,1.1c0.1,0,0.3,0,0.4,0c1.4,0,2.7-1.1,2.9-2.5l1-6.7l1.1-0.4l-1.6,10.4l-8.2,18
		c-0.4,0.8-0.4,1.7-0.1,2.6c0.3,0.8,1,1.5,1.8,1.9c0.4,0.2,0.9,0.3,1.4,0.3c1.3,0,2.5-0.8,3.1-2l6.6-14.5l2.5,3.2l1.2,10.3
		c0.2,1.7,1.6,3,3.4,3h0c0.1,0,0.3,0,0.4,0c0.9-0.1,1.7-0.6,2.3-1.3c0.6-0.7,0.8-1.6,0.7-2.5L33.6,40.3z"/>
	<path class="st0" d="M50.1,28.9c-0.3-0.7-1-1.2-1.8-1.2c-0.3,0-0.5,0.1-0.8,0.2l-3.4,1.5c-0.2-0.6-0.6-1.2-0.8-1.7
		c-0.3-0.6-0.9-1.1-1.5-1.3l-6.5-2.4c-0.5-1.1-2.1-4.8-2.8-7c-0.1-0.4-0.6-0.6-1.2-0.6c-0.3,0-0.5,0-0.6,0l-0.1,0l0,0.1
		c0.6,2.5,3.2,8.2,3.3,8.4l0.1,0.3l7.2,2.7c0.3,0.1,0.5,0.3,0.6,0.5c0.3,0.6,1.3,3,1.3,3l0,0.1l5-2.1c0.1-0.1,0.3,0,0.4,0.2l2.9,7
		c0,0.1,0,0.2,0,0.2c0,0.1-0.1,0.1-0.2,0.2l-11.6,4.8c-0.1,0.1-0.3,0-0.4-0.2l-2.9-7c0-0.1,0-0.1,0-0.2c0-0.1,0.1-0.1,0.2-0.2l4-1.7
		l-0.1-0.1c0,0-0.6-0.8-1.6-0.8c-0.3,0-0.5,0.1-0.8,0.2c-0.3,0.1-2.2,0.9-2.2,0.9c-0.5,0.2-0.9,0.6-1.1,1.1c-0.2,0.5-0.2,1,0,1.5
		l2.9,7c0.3,0.7,1,1.2,1.8,1.2c0.3,0,0.5-0.1,0.8-0.2l11.6-4.8c0.5-0.2,0.9-0.6,1.1-1.1c0.2-0.5,0.2-1,0-1.5L50.1,28.9z"/>
</g>
</svg>
