<?xml version="1.0" encoding="utf-8"?>
<!-- Generator: Adobe Illustrator 19.2.1, SVG Export Plug-In . SVG Version: 6.00 Build 0)  -->
<svg version="1.1" id="Layer_1" xmlns="http://www.w3.org/2000/svg" xmlns:xlink="http://www.w3.org/1999/xlink" x="0px" y="0px"
	 viewBox="0 0 60 60" style="enable-background:new 0 0 60 60;" xml:space="preserve">
<style type="text/css">
	.st0{fill:#FFFFFF;}
</style>
<g>
	<path class="st0" d="M46.5,16.6c0-0.6-0.2-1.2-0.6-1.7l-4.7-9.3l0,0c-0.5-0.8-1.4-1.4-2.4-1.4c-0.5,0-1,0.1-1.4,0.4
		c-1,0.6-1.6,1.9-1.3,3.1l0.1,0.2l-1.8,0.8c0-0.1,0-0.2-0.1-0.3c-0.1-0.3-0.2-0.7-0.3-1c-0.2-0.5-0.5-0.9-0.9-1.2
		c-0.9-0.9-2-1.3-3.2-1.3c-0.3,0-0.6,0-1,0.1c-1.2,0.3-2.2,1-2.8,2c-0.6,1-0.9,2.2-0.6,3.4l0,0.1l0.1,0c0,0,1.4-0.1,1.5-1.5
		c0.2-1.1,1-2,2.1-2.3c0.2,0,0.4-0.1,0.6-0.1c0.7,0,1.4,0.3,2,0.8c0.2,0.2,0.4,0.5,0.5,0.8c0.1,0.2,0.2,0.4,0.2,0.6
		c0.2,0.7,0,1.5-0.4,2.1c-0.8,1.1-1.7,1.2-1.7,1.2c-1,0.2-1.9,0.7-2.4,1.6c-0.7,1.2-0.7,2.8-0.1,4l0,0.1c1.1,1.9,6.6,11.3,6.9,11.8
		c0,0,0,0,0,0.1c0.1,0.2,0,0.5,0,0.6l-1.8,9.4l-6,9.9c-1,1.6-0.4,3.7,1.2,4.6c0.8,0.5,1.7,0.6,2.6,0.4c0.9-0.2,1.6-0.8,2.1-1.5
		l4.3-7.1l-2,5.4c-0.3,0.8-0.3,1.8,0.1,2.6c0.4,0.8,1.1,1.4,1.9,1.8c0.4,0.1,0.8,0.2,1.2,0.2c1.4,0,2.7-0.9,3.2-2.2l4-10.9
		c0.1-0.2,0.1-0.4,0.2-0.6c0.2-0.4,0.2-0.8,0.2-1.2V29.3c0-0.5-0.1-1.1-0.4-1.6l-4.4-8.3h2.6C45.2,19.4,46.5,18.2,46.5,16.6z
		 M38.3,54.1c-0.2,0-0.4,0-0.6-0.1c-0.4-0.2-0.7-0.5-0.9-0.9c-0.2-0.4-0.2-0.9,0-1.3l4-10.8c0,0,0-0.1,0-0.1l0.1-0.1l0-6.2l-1.7-0.2
		L38,40.8c0,0.2-0.1,0.5-0.3,0.7l-0.1,0.1l0,0.1c0,0.2-0.1,0.3-0.2,0.4l-6,9.9c-0.2,0.4-0.6,0.6-1,0.8c-0.4,0.1-0.9,0-1.3-0.2
		c-0.8-0.5-1-1.5-0.6-2.3l6-9.9c0,0,0-0.1,0.1-0.1l0.1-0.1l1.9-9.7c0-0.1,0.1-0.8-0.1-1.5c-0.1-0.1-0.1-0.3-0.2-0.4
		c-0.3-0.4-4.6-7.9-6.9-11.7c-0.3-0.5-0.3-1.5,0.1-2.3c0.4-0.7,1.4-0.9,1.4-0.9c1.1-0.3,2.1-1,2.7-1.9c0.2-0.3,0.4-0.7,0.5-1.1
		l2.7-1.2l2.2,4.5h-2.5c-1.4,0-1.6,1.6-1.6,1.6l0,0.1h6.9l-4.2-8.3l0,0c-0.1-0.5,0.1-0.9,0.5-1.2c0.2-0.1,0.4-0.2,0.5-0.2
		c0.4,0,0.7,0.2,0.9,0.5l4.8,9.5l0.1,0.1c0.1,0.1,0.3,0.4,0.3,0.7c0,0.6-0.5,1.1-1.1,1.1h-5.4L44,28.5c0.1,0.3,0.2,0.5,0.2,0.8v11.6
		c0,0.2,0,0.5-0.1,0.7l0,0.1l0,0.1c0,0.1,0,0.3-0.1,0.4l-4,10.9C39.7,53.7,39,54.1,38.3,54.1z"/>
	<path class="st0" d="M17.5,21.6l-1.9-2.4l1.5-0.7l0.1-0.1l0,0l10.1-4.7l-0.7-1.6l-11.2,5.2l-2.8,1.2c-0.7,0.3-1,1.2-0.7,1.9
		l1.4,3.1c0.2,0.5,0.7,0.8,1.3,0.8c0.2,0,0.4,0,0.6-0.1l1.7-0.8C17.5,23.2,17.9,22.4,17.5,21.6L17.5,21.6z M15.8,22.1l-1.1,0.5
		L13.5,20l0.4-0.2L15.8,22.1z"/>
</g>
</svg>
