<?xml version="1.0" encoding="utf-8"?>
<!-- Generator: Adobe Illustrator 19.2.1, SVG Export Plug-In . SVG Version: 6.00 Build 0)  -->
<svg version="1.1" id="Layer_1" xmlns="http://www.w3.org/2000/svg" xmlns:xlink="http://www.w3.org/1999/xlink" x="0px" y="0px"
	 viewBox="0 0 125 125" style="enable-background:new 0 0 125 125;" xml:space="preserve">
<style type="text/css">
	.st0{fill:#FFFFFF;}
</style>
<g>
	<path class="st0" d="M62.7,19.2c1.4,0,2.7,0.1,4.1,0.2V5.8c-1.4-0.1-2.8-0.2-4.2-0.2c-1.3,0-2.6,0.1-3.8,0.1v13.6
		C60,19.3,61.3,19.2,62.7,19.2z"/>
	<path class="st0" d="M19.3,62.6c0-1.4,0.1-2.8,0.2-4.2H6c-0.1,1.3-0.2,2.6-0.2,4c0,1.4,0.1,2.7,0.2,4.1h13.5
		C19.3,65.2,19.3,63.9,19.3,62.6z"/>
	<path class="st0" d="M62.7,106c-1.4,0-2.8-0.1-4.2-0.2v13.1c1.3,0.1,2.7,0.2,4,0.2c1.4,0,2.7-0.1,4-0.2v-13.1
		C65.3,105.9,64,106,62.7,106z"/>
	<path class="st0" d="M106.1,62.6c0,1.3-0.1,2.7-0.2,4H119c0.1-1.4,0.2-2.8,0.2-4.3c0-1.3-0.1-2.5-0.1-3.8h-13.2
		C106,59.9,106.1,61.2,106.1,62.6z"/>
	<path class="st0" d="M44.7,23.1l-6.8-11.8c-2.4,1.2-4.8,2.5-7,4l6.8,11.8C39.9,25.6,42.3,24.2,44.7,23.1z"/>
	<path class="st0" d="M23.1,80.5l-11.6,6.7c1.2,2.4,2.5,4.7,4,7l11.5-6.7C25.6,85.3,24.2,83,23.1,80.5z"/>
	<path class="st0" d="M80.8,102l6.5,11.3c2.4-1.2,4.7-2.5,7-4L87.7,98C85.6,99.6,83.2,100.9,80.8,102z"/>
	<path class="st0" d="M27.5,37.3l-11.8-6.8c-1.5,2.2-2.9,4.5-4,6.9l11.8,6.8C24.5,41.7,25.9,39.4,27.5,37.3z"/>
	<path class="st0" d="M37.4,97.9l-6.6,11.5c2.2,1.5,4.5,2.8,7,4l6.6-11.4C41.9,100.8,39.6,99.4,37.4,97.9z"/>
	<path class="st0" d="M98.2,87.6l11.3,6.5c1.5-2.2,2.8-4.5,4-7l-11.4-6.6C101,83,99.7,85.4,98.2,87.6z"/>
	<path class="st0" d="M87.7,27.2l6.7-11.7c-2.2-1.5-4.5-2.9-6.9-4l-6.8,11.7C83.2,24.3,85.5,25.6,87.7,27.2z"/>
	<path class="st0" d="M113.7,37.9L113.7,37.9l0.1-0.1c-1.2-2.4-2.5-4.7-4-7c0,0-16.7,9.4-18,10.2c-2.3,1.4-2.9,3.2-2.9,4.5
		c-0.1,2.1,0.6,3.6,0.6,3.6c2,4,3,8.5,3,13c0,0.6,0,1.2-0.1,1.8l0,0.5c0,0.4-0.1,0.9-0.1,1.3l-0.1,0.6c-0.1,0.5-0.2,1-0.3,1.5l0,0.2
		c-0.1,0.6-0.3,1.1-0.4,1.7l-0.1,0.5c-0.1,0.4-0.2,0.8-0.4,1.2l-0.2,0.5c-0.2,0.5-0.3,0.9-0.5,1.3l-0.1,0.3
		c-0.2,0.5-0.5,1.1-0.7,1.6l-0.5,1c-0.1,0.2-0.2,0.4-0.3,0.6l-0.2,0.3l-0.1,0.1l0.5,0.3l-0.6-0.2c-0.2,0.4-0.4,0.7-0.7,1.1l-0.2,0.3
		c-0.3,0.5-0.7,0.9-1,1.4l-0.3,0.3c-0.3,0.4-0.6,0.7-0.8,1L85,82c-0.3,0.4-0.7,0.7-1,1.1l-0.2,0.2c-0.4,0.4-0.8,0.8-1.3,1.2
		l-0.3,0.3c-0.3,0.3-0.7,0.6-1.1,0.9l-0.4,0.3c-0.4,0.3-0.8,0.6-1.2,0.9L79.3,87c-0.4,0.3-0.9,0.6-1.3,0.8l-0.4,0.2
		c-0.2,0.1-0.5,0.3-0.8,0.4L75.9,89c-0.5,0.2-0.9,0.5-1.4,0.7l0.1,0.6l0,0l-0.3-0.5c-0.5,0.2-1.1,0.4-1.6,0.6l-0.5,0.2
		c-0.4,0.1-0.8,0.3-1.3,0.4l-0.4,0.1c-0.5,0.1-1.1,0.3-1.6,0.4l0.1,0.6l-0.2-0.5c-0.6,0.1-1.2,0.2-1.8,0.3l-0.5,0.1
		C66,91.9,65.5,92,65.1,92l-0.5,0c-0.6,0-1.2,0.1-1.9,0.1c-0.5,0-1,0-1.5,0c-3.9-0.2-7.7-1.1-11.2-2.8c-1.3-0.6-2.7-1.4-3.9-2.2
		c-3.2-2.1-5.9-4.8-8-7.9c-0.9-1.3-1.7-2.6-2.3-4c-1.6-3.4-2.6-7.1-2.8-10.9c0-0.7-0.1-1.3-0.1-2c0-0.6,0-1.2,0.1-1.8l0-0.5l-0.6,0
		l0.6-0.2c0-0.4,0.1-0.7,0.1-1.1c0-0.2,0-0.4,0.1-0.5c0.1-0.5,0.2-1,0.3-1.6l0-0.2c0.1-0.6,0.3-1.1,0.4-1.7l0.1-0.5
		c0.1-0.4,0.2-0.8,0.4-1.2l0.2-0.5c0.2-0.5,0.3-0.9,0.5-1.3l0.1-0.3c0.2-0.5,0.5-1.1,0.7-1.6l0.2-0.4l-0.5-0.3l0.6,0.1
		c0.2-0.3,0.4-0.7,0.5-1l0.3-0.5c0.2-0.4,0.5-0.8,0.7-1.2l0.2-0.3c0.1-0.1,0.1-0.2,0.2-0.3l0.3-0.4c0.2-0.3,0.4-0.5,0.6-0.8l0.3-0.3
		c0.3-0.4,0.6-0.7,0.9-1.1l0.3-0.4c0.3-0.4,0.6-0.7,1-1.1l0.2-0.2c0.4-0.4,0.8-0.8,1.2-1.2l0.4-0.3c0.3-0.3,0.7-0.6,1-0.9l0.4-0.3
		c0.4-0.3,0.8-0.6,1.2-0.9l0.2-0.2c0.2-0.2,0.5-0.3,0.7-0.4l1.2-0.7c0.4-0.2,0.8-0.4,1.1-0.6c0.2-0.1,0.3-0.2,0.5-0.2l0.3-0.1
		c0.4-0.2,0.7-0.3,1.1-0.5l0.2-0.1c0.5-0.2,1.1-0.4,1.6-0.6l0.5-0.2c0.4-0.1,0.8-0.3,1.2-0.4l0.5-0.1c0.5-0.1,1.1-0.3,1.6-0.4l0.1,0
		c0.6-0.1,1.2-0.2,1.8-0.3l0.5-0.1c0.5-0.1,0.9-0.1,1.4-0.1l0.5,0c0.5,0,1,0,1.4,0l0.4,0c0.5,0,1,0,1.6,0c5.9,0.3,11.5,2.4,16.3,6
		l0.5,0.4l2.1-3.7l2-3.4c0,0-2.2-1.5-3.1-2.1c-0.3-0.2-0.7-0.4-1-0.6c-0.7-0.4-1.3-0.7-2-1c-3.9-1.9-8-3-12.3-3.5
		c-1.3-0.1-2.7-0.2-4-0.2c-0.9,0-1.8,0-2.8,0.1c-4.3,0.3-8.6,1.4-12.5,3.1c-2.1,0.9-4.1,2-6,3.3c-3.6,2.5-6.8,5.5-9.4,9.1
		c-0.9,1.2-1.6,2.3-2.2,3.4c-0.4,0.7-0.8,1.5-1.3,2.4c-1.9,4-3.1,8.3-3.6,12.7c-0.1,1.4-0.2,2.6-0.2,3.7c0,0.9,0,1.9,0.1,3.1
		c0.4,4.5,1.5,8.8,3.4,12.9c0.9,2,2.1,4,3.4,5.9c2.6,3.7,5.8,6.8,9.4,9.4c1.9,1.3,3.8,2.4,5.9,3.4c4,1.8,8.4,3,12.8,3.3
		c1.1,0.1,2,0.1,2.9,0.1c1.2,0,2.4-0.1,3.9-0.2c4.4-0.5,8.6-1.6,12.6-3.6c2-1,4-2.2,5.8-3.5c3.5-2.6,6.5-5.7,9-9.2
		c0.6-0.9,1.2-1.7,1.6-2.5c0.6-1,1.1-2.1,1.7-3.4c1.8-3.9,2.8-8.1,3.2-12.3c0.1-1.2,0.1-2.2,0.1-3.2c0-1.2-0.1-2.4-0.2-3.6
		c-0.4-3.9-1.4-7.7-2.9-11.4l3.1-1.8L113.7,37.9z"/>
</g>
</svg>
