<?xml version="1.0" encoding="utf-8"?>
<!-- Generator: Adobe Illustrator 19.2.1, SVG Export Plug-In . SVG Version: 6.00 Build 0)  -->
<svg version="1.1" id="Layer_1" xmlns="http://www.w3.org/2000/svg" xmlns:xlink="http://www.w3.org/1999/xlink" x="0px" y="0px"
	 viewBox="0 0 125 125" style="enable-background:new 0 0 125 125;" xml:space="preserve">
<style type="text/css">
	.st0{fill:#ffffff;}
</style>
<g>
	<path class="st0" d="M113.2,68.3v-3.4h0v-5.6h0c0-26.3-20.1-48-45.8-50.5V2.3h-3.8c-3.9,0.8-4.9,4.4-5.1,5.6v0.7
		c-26.2,1.9-47,23.9-47,50.6l0,0v8.5c0,0.1,0,0.2,0,0.3c0.3,4.5,5,5.5,6.4,5.7h34.2v-3.8c-0.8-3.9-4.4-4.9-5.7-5.1H20.4v-5.6l0,0
		c0-23.1,18.8-42,42-42c23.1,0,42,18.8,42,42h0v5.6h-34v0h-8.8v42.3c0,3.8-3.1,6.9-6.9,6.9c-3.8,0-6.9-3.1-6.9-6.9H39
		c0,8.7,7.1,15.7,15.7,15.7c8.6,0,15.7-7,15.7-15.6h0v-0.1l0,0h0V73.7h38.3C111.7,73,112.8,70,113.2,68.3z"/>
</g>
</svg>
